<?xml version="1.0" encoding="UTF-8" ?>
<svg version="1.1" width="64" height="64" xmlns="http://www.w3.org/2000/svg" shape-rendering="crispEdges">
<rect x="27" y="0" width="1" height="1" fill="#FFFFFF" />
<rect x="28" y="0" width="1" height="1" fill="#FFFFFF" />
<rect x="29" y="0" width="1" height="1" fill="#FFFFFF" />
<rect x="30" y="0" width="1" height="1" fill="#FFFFFF" />
<rect x="31" y="0" width="1" height="1" fill="#FFFFFF" />
<rect x="32" y="0" width="1" height="1" fill="#FFFFFF" />
<rect x="33" y="0" width="1" height="1" fill="#FFFFFF" />
<rect x="34" y="0" width="1" height="1" fill="#FFFFFF" />
<rect x="35" y="0" width="1" height="1" fill="#FFFFFF" />
<rect x="36" y="0" width="1" height="1" fill="#FFFFFF" />
<rect x="23" y="1" width="1" height="1" fill="#FFFFFF" />
<rect x="24" y="1" width="1" height="1" fill="#FFFFFF" />
<rect x="25" y="1" width="1" height="1" fill="#FFFFFF" />
<rect x="26" y="1" width="1" height="1" fill="#FFFFFF" />
<rect x="27" y="1" width="1" height="1" fill="#FFFFFF" />
<rect x="28" y="1" width="1" height="1" fill="#FFFFFF" />
<rect x="29" y="1" width="1" height="1" fill="#FFFFFF" />
<rect x="30" y="1" width="1" height="1" fill="#FFFFFF" />
<rect x="31" y="1" width="1" height="1" fill="#FFFFFF" />
<rect x="32" y="1" width="1" height="1" fill="#FFFFFF" />
<rect x="33" y="1" width="1" height="1" fill="#FFFFFF" />
<rect x="34" y="1" width="1" height="1" fill="#FFFFFF" />
<rect x="35" y="1" width="1" height="1" fill="#FFFFFF" />
<rect x="36" y="1" width="1" height="1" fill="#FFFFFF" />
<rect x="37" y="1" width="1" height="1" fill="#FFFFFF" />
<rect x="38" y="1" width="1" height="1" fill="#FFFFFF" />
<rect x="39" y="1" width="1" height="1" fill="#FFFFFF" />
<rect x="40" y="1" width="1" height="1" fill="#FFFFFF" />
<rect x="20" y="2" width="1" height="1" fill="#FFFFFF" />
<rect x="21" y="2" width="1" height="1" fill="#FFFFFF" />
<rect x="22" y="2" width="1" height="1" fill="#FFFFFF" />
<rect x="23" y="2" width="1" height="1" fill="#FFFFFF" />
<rect x="24" y="2" width="1" height="1" fill="#FFFFFF" />
<rect x="25" y="2" width="1" height="1" fill="#FFFFFF" />
<rect x="26" y="2" width="1" height="1" fill="#FFFFFF" />
<rect x="27" y="2" width="1" height="1" fill="#FFFFFF" />
<rect x="28" y="2" width="1" height="1" fill="#FFFFFF" />
<rect x="29" y="2" width="1" height="1" fill="#FFFFFF" />
<rect x="30" y="2" width="1" height="1" fill="#FFFFFF" />
<rect x="31" y="2" width="1" height="1" fill="#FFFFFF" />
<rect x="32" y="2" width="1" height="1" fill="#FFFFFF" />
<rect x="33" y="2" width="1" height="1" fill="#FFFFFF" />
<rect x="34" y="2" width="1" height="1" fill="#FFFFFF" />
<rect x="35" y="2" width="1" height="1" fill="#FFFFFF" />
<rect x="36" y="2" width="1" height="1" fill="#FFFFFF" />
<rect x="37" y="2" width="1" height="1" fill="#FFFFFF" />
<rect x="38" y="2" width="1" height="1" fill="#FFFFFF" />
<rect x="39" y="2" width="1" height="1" fill="#FFFFFF" />
<rect x="40" y="2" width="1" height="1" fill="#FFFFFF" />
<rect x="41" y="2" width="1" height="1" fill="#FFFFFF" />
<rect x="42" y="2" width="1" height="1" fill="#FFFFFF" />
<rect x="43" y="2" width="1" height="1" fill="#FFFFFF" />
<rect x="18" y="3" width="1" height="1" fill="#FFFFFF" />
<rect x="19" y="3" width="1" height="1" fill="#FFFFFF" />
<rect x="20" y="3" width="1" height="1" fill="#FFFFFF" />
<rect x="21" y="3" width="1" height="1" fill="#FFFFFF" />
<rect x="22" y="3" width="1" height="1" fill="#FFFFFF" />
<rect x="23" y="3" width="1" height="1" fill="#FFFFFF" />
<rect x="24" y="3" width="1" height="1" fill="#FFFFFF" />
<rect x="25" y="3" width="1" height="1" fill="#FFFFFF" />
<rect x="26" y="3" width="1" height="1" fill="#FFFFFF" />
<rect x="37" y="3" width="1" height="1" fill="#FFFFFF" />
<rect x="38" y="3" width="1" height="1" fill="#FFFFFF" />
<rect x="39" y="3" width="1" height="1" fill="#FFFFFF" />
<rect x="40" y="3" width="1" height="1" fill="#FFFFFF" />
<rect x="41" y="3" width="1" height="1" fill="#FFFFFF" />
<rect x="42" y="3" width="1" height="1" fill="#FFFFFF" />
<rect x="43" y="3" width="1" height="1" fill="#FFFFFF" />
<rect x="44" y="3" width="1" height="1" fill="#FFFFFF" />
<rect x="45" y="3" width="1" height="1" fill="#FFFFFF" />
<rect x="16" y="4" width="1" height="1" fill="#FFFFFF" />
<rect x="17" y="4" width="1" height="1" fill="#FFFFFF" />
<rect x="18" y="4" width="1" height="1" fill="#FFFFFF" />
<rect x="19" y="4" width="1" height="1" fill="#FFFFFF" />
<rect x="20" y="4" width="1" height="1" fill="#FFFFFF" />
<rect x="21" y="4" width="1" height="1" fill="#FFFFFF" />
<rect x="22" y="4" width="1" height="1" fill="#FFFFFF" />
<rect x="41" y="4" width="1" height="1" fill="#FFFFFF" />
<rect x="42" y="4" width="1" height="1" fill="#FFFFFF" />
<rect x="43" y="4" width="1" height="1" fill="#FFFFFF" />
<rect x="44" y="4" width="1" height="1" fill="#FFFFFF" />
<rect x="45" y="4" width="1" height="1" fill="#FFFFFF" />
<rect x="46" y="4" width="1" height="1" fill="#FFFFFF" />
<rect x="47" y="4" width="1" height="1" fill="#FFFFFF" />
<rect x="15" y="5" width="1" height="1" fill="#FFFFFF" />
<rect x="16" y="5" width="1" height="1" fill="#FFFFFF" />
<rect x="17" y="5" width="1" height="1" fill="#FFFFFF" />
<rect x="18" y="5" width="1" height="1" fill="#FFFFFF" />
<rect x="19" y="5" width="1" height="1" fill="#FFFFFF" />
<rect x="44" y="5" width="1" height="1" fill="#FFFFFF" />
<rect x="45" y="5" width="1" height="1" fill="#FFFFFF" />
<rect x="46" y="5" width="1" height="1" fill="#FFFFFF" />
<rect x="47" y="5" width="1" height="1" fill="#FFFFFF" />
<rect x="48" y="5" width="1" height="1" fill="#FFFFFF" />
<rect x="14" y="6" width="1" height="1" fill="#FFFFFF" />
<rect x="15" y="6" width="1" height="1" fill="#FFFFFF" />
<rect x="16" y="6" width="1" height="1" fill="#FFFFFF" />
<rect x="17" y="6" width="1" height="1" fill="#FFFFFF" />
<rect x="46" y="6" width="1" height="1" fill="#FFFFFF" />
<rect x="47" y="6" width="1" height="1" fill="#FFFFFF" />
<rect x="48" y="6" width="1" height="1" fill="#FFFFFF" />
<rect x="49" y="6" width="1" height="1" fill="#FFFFFF" />
<rect x="12" y="7" width="1" height="1" fill="#FFFFFF" />
<rect x="13" y="7" width="1" height="1" fill="#FFFFFF" />
<rect x="14" y="7" width="1" height="1" fill="#FFFFFF" />
<rect x="15" y="7" width="1" height="1" fill="#FFFFFF" />
<rect x="48" y="7" width="1" height="1" fill="#FFFFFF" />
<rect x="49" y="7" width="1" height="1" fill="#FFFFFF" />
<rect x="50" y="7" width="1" height="1" fill="#FFFFFF" />
<rect x="51" y="7" width="1" height="1" fill="#FFFFFF" />
<rect x="11" y="8" width="1" height="1" fill="#FFFFFF" />
<rect x="12" y="8" width="1" height="1" fill="#FFFFFF" />
<rect x="13" y="8" width="1" height="1" fill="#FFFFFF" />
<rect x="14" y="8" width="1" height="1" fill="#FFFFFF" />
<rect x="49" y="8" width="1" height="1" fill="#FFFFFF" />
<rect x="50" y="8" width="1" height="1" fill="#FFFFFF" />
<rect x="51" y="8" width="1" height="1" fill="#FFFFFF" />
<rect x="52" y="8" width="1" height="1" fill="#FFFFFF" />
<rect x="10" y="9" width="1" height="1" fill="#FFFFFF" />
<rect x="11" y="9" width="1" height="1" fill="#FFFFFF" />
<rect x="12" y="9" width="1" height="1" fill="#FFFFFF" />
<rect x="13" y="9" width="1" height="1" fill="#FFFFFF" />
<rect x="50" y="9" width="1" height="1" fill="#FFFFFF" />
<rect x="51" y="9" width="1" height="1" fill="#FFFFFF" />
<rect x="52" y="9" width="1" height="1" fill="#FFFFFF" />
<rect x="53" y="9" width="1" height="1" fill="#FFFFFF" />
<rect x="9" y="10" width="1" height="1" fill="#FFFFFF" />
<rect x="10" y="10" width="1" height="1" fill="#FFFFFF" />
<rect x="11" y="10" width="1" height="1" fill="#FFFFFF" />
<rect x="50" y="10" width="1" height="1" fill="#FFFFFF" />
<rect x="51" y="10" width="1" height="1" fill="#FFFFFF" />
<rect x="52" y="10" width="1" height="1" fill="#FFFFFF" />
<rect x="53" y="10" width="1" height="1" fill="#FFFFFF" />
<rect x="54" y="10" width="1" height="1" fill="#FFFFFF" />
<rect x="8" y="11" width="1" height="1" fill="#FFFFFF" />
<rect x="9" y="11" width="1" height="1" fill="#FFFFFF" />
<rect x="10" y="11" width="1" height="1" fill="#FFFFFF" />
<rect x="49" y="11" width="1" height="1" fill="#FFFFFF" />
<rect x="50" y="11" width="1" height="1" fill="#FFFFFF" />
<rect x="51" y="11" width="1" height="1" fill="#FFFFFF" />
<rect x="52" y="11" width="1" height="1" fill="#FFFFFF" />
<rect x="53" y="11" width="1" height="1" fill="#FFFFFF" />
<rect x="54" y="11" width="1" height="1" fill="#FFFFFF" />
<rect x="55" y="11" width="1" height="1" fill="#FFFFFF" />
<rect x="7" y="12" width="1" height="1" fill="#FFFFFF" />
<rect x="8" y="12" width="1" height="1" fill="#FFFFFF" />
<rect x="9" y="12" width="1" height="1" fill="#FFFFFF" />
<rect x="48" y="12" width="1" height="1" fill="#FFFFFF" />
<rect x="49" y="12" width="1" height="1" fill="#FFFFFF" />
<rect x="50" y="12" width="1" height="1" fill="#FFFFFF" />
<rect x="51" y="12" width="1" height="1" fill="#FFFFFF" />
<rect x="52" y="12" width="1" height="1" fill="#FFFFFF" />
<rect x="53" y="12" width="1" height="1" fill="#FFFFFF" />
<rect x="54" y="12" width="1" height="1" fill="#FFFFFF" />
<rect x="55" y="12" width="1" height="1" fill="#FFFFFF" />
<rect x="56" y="12" width="1" height="1" fill="#FFFFFF" />
<rect x="7" y="13" width="1" height="1" fill="#FFFFFF" />
<rect x="8" y="13" width="1" height="1" fill="#FFFFFF" />
<rect x="9" y="13" width="1" height="1" fill="#FFFFFF" />
<rect x="47" y="13" width="1" height="1" fill="#FFFFFF" />
<rect x="48" y="13" width="1" height="1" fill="#FFFFFF" />
<rect x="49" y="13" width="1" height="1" fill="#FFFFFF" />
<rect x="50" y="13" width="1" height="1" fill="#FFFFFF" />
<rect x="51" y="13" width="1" height="1" fill="#FFFFFF" />
<rect x="52" y="13" width="1" height="1" fill="#FFFFFF" />
<rect x="53" y="13" width="1" height="1" fill="#FFFFFF" />
<rect x="54" y="13" width="1" height="1" fill="#FFFFFF" />
<rect x="55" y="13" width="1" height="1" fill="#FFFFFF" />
<rect x="56" y="13" width="1" height="1" fill="#FFFFFF" />
<rect x="6" y="14" width="1" height="1" fill="#FFFFFF" />
<rect x="7" y="14" width="1" height="1" fill="#FFFFFF" />
<rect x="8" y="14" width="1" height="1" fill="#FFFFFF" />
<rect x="46" y="14" width="1" height="1" fill="#FFFFFF" />
<rect x="47" y="14" width="1" height="1" fill="#FFFFFF" />
<rect x="48" y="14" width="1" height="1" fill="#FFFFFF" />
<rect x="49" y="14" width="1" height="1" fill="#FFFFFF" />
<rect x="50" y="14" width="1" height="1" fill="#FFFFFF" />
<rect x="51" y="14" width="1" height="1" fill="#FFFFFF" />
<rect x="52" y="14" width="1" height="1" fill="#FFFFFF" />
<rect x="55" y="14" width="1" height="1" fill="#FFFFFF" />
<rect x="56" y="14" width="1" height="1" fill="#FFFFFF" />
<rect x="57" y="14" width="1" height="1" fill="#FFFFFF" />
<rect x="5" y="15" width="1" height="1" fill="#FFFFFF" />
<rect x="6" y="15" width="1" height="1" fill="#FFFFFF" />
<rect x="7" y="15" width="1" height="1" fill="#FFFFFF" />
<rect x="45" y="15" width="1" height="1" fill="#FFFFFF" />
<rect x="46" y="15" width="1" height="1" fill="#FFFFFF" />
<rect x="47" y="15" width="1" height="1" fill="#FFFFFF" />
<rect x="48" y="15" width="1" height="1" fill="#FFFFFF" />
<rect x="49" y="15" width="1" height="1" fill="#FFFFFF" />
<rect x="50" y="15" width="1" height="1" fill="#FFFFFF" />
<rect x="51" y="15" width="1" height="1" fill="#FFFFFF" />
<rect x="56" y="15" width="1" height="1" fill="#FFFFFF" />
<rect x="57" y="15" width="1" height="1" fill="#FFFFFF" />
<rect x="58" y="15" width="1" height="1" fill="#FFFFFF" />
<rect x="4" y="16" width="1" height="1" fill="#FFFFFF" />
<rect x="5" y="16" width="1" height="1" fill="#FFFFFF" />
<rect x="6" y="16" width="1" height="1" fill="#FFFFFF" />
<rect x="44" y="16" width="1" height="1" fill="#FFFFFF" />
<rect x="45" y="16" width="1" height="1" fill="#FFFFFF" />
<rect x="46" y="16" width="1" height="1" fill="#FFFFFF" />
<rect x="47" y="16" width="1" height="1" fill="#FFFFFF" />
<rect x="48" y="16" width="1" height="1" fill="#FFFFFF" />
<rect x="49" y="16" width="1" height="1" fill="#FFFFFF" />
<rect x="50" y="16" width="1" height="1" fill="#FFFFFF" />
<rect x="57" y="16" width="1" height="1" fill="#FFFFFF" />
<rect x="58" y="16" width="1" height="1" fill="#FFFFFF" />
<rect x="59" y="16" width="1" height="1" fill="#FFFFFF" />
<rect x="4" y="17" width="1" height="1" fill="#FFFFFF" />
<rect x="5" y="17" width="1" height="1" fill="#FFFFFF" />
<rect x="6" y="17" width="1" height="1" fill="#FFFFFF" />
<rect x="43" y="17" width="1" height="1" fill="#FFFFFF" />
<rect x="44" y="17" width="1" height="1" fill="#FFFFFF" />
<rect x="45" y="17" width="1" height="1" fill="#FFFFFF" />
<rect x="46" y="17" width="1" height="1" fill="#FFFFFF" />
<rect x="47" y="17" width="1" height="1" fill="#FFFFFF" />
<rect x="48" y="17" width="1" height="1" fill="#FFFFFF" />
<rect x="49" y="17" width="1" height="1" fill="#FFFFFF" />
<rect x="57" y="17" width="1" height="1" fill="#FFFFFF" />
<rect x="58" y="17" width="1" height="1" fill="#FFFFFF" />
<rect x="59" y="17" width="1" height="1" fill="#FFFFFF" />
<rect x="3" y="18" width="1" height="1" fill="#FFFFFF" />
<rect x="4" y="18" width="1" height="1" fill="#FFFFFF" />
<rect x="5" y="18" width="1" height="1" fill="#FFFFFF" />
<rect x="42" y="18" width="1" height="1" fill="#FFFFFF" />
<rect x="43" y="18" width="1" height="1" fill="#FFFFFF" />
<rect x="44" y="18" width="1" height="1" fill="#FFFFFF" />
<rect x="45" y="18" width="1" height="1" fill="#FFFFFF" />
<rect x="46" y="18" width="1" height="1" fill="#FFFFFF" />
<rect x="47" y="18" width="1" height="1" fill="#FFFFFF" />
<rect x="48" y="18" width="1" height="1" fill="#FFFFFF" />
<rect x="58" y="18" width="1" height="1" fill="#FFFFFF" />
<rect x="59" y="18" width="1" height="1" fill="#FFFFFF" />
<rect x="60" y="18" width="1" height="1" fill="#FFFFFF" />
<rect x="3" y="19" width="1" height="1" fill="#FFFFFF" />
<rect x="4" y="19" width="1" height="1" fill="#FFFFFF" />
<rect x="5" y="19" width="1" height="1" fill="#FFFFFF" />
<rect x="41" y="19" width="1" height="1" fill="#FFFFFF" />
<rect x="42" y="19" width="1" height="1" fill="#FFFFFF" />
<rect x="43" y="19" width="1" height="1" fill="#FFFFFF" />
<rect x="44" y="19" width="1" height="1" fill="#FFFFFF" />
<rect x="45" y="19" width="1" height="1" fill="#FFFFFF" />
<rect x="46" y="19" width="1" height="1" fill="#FFFFFF" />
<rect x="47" y="19" width="1" height="1" fill="#FFFFFF" />
<rect x="58" y="19" width="1" height="1" fill="#FFFFFF" />
<rect x="59" y="19" width="1" height="1" fill="#FFFFFF" />
<rect x="60" y="19" width="1" height="1" fill="#FFFFFF" />
<rect x="2" y="20" width="1" height="1" fill="#FFFFFF" />
<rect x="3" y="20" width="1" height="1" fill="#FFFFFF" />
<rect x="4" y="20" width="1" height="1" fill="#FFFFFF" />
<rect x="40" y="20" width="1" height="1" fill="#FFFFFF" />
<rect x="41" y="20" width="1" height="1" fill="#FFFFFF" />
<rect x="42" y="20" width="1" height="1" fill="#FFFFFF" />
<rect x="43" y="20" width="1" height="1" fill="#FFFFFF" />
<rect x="44" y="20" width="1" height="1" fill="#FFFFFF" />
<rect x="45" y="20" width="1" height="1" fill="#FFFFFF" />
<rect x="46" y="20" width="1" height="1" fill="#FFFFFF" />
<rect x="59" y="20" width="1" height="1" fill="#FFFFFF" />
<rect x="60" y="20" width="1" height="1" fill="#FFFFFF" />
<rect x="61" y="20" width="1" height="1" fill="#FFFFFF" />
<rect x="2" y="21" width="1" height="1" fill="#FFFFFF" />
<rect x="3" y="21" width="1" height="1" fill="#FFFFFF" />
<rect x="4" y="21" width="1" height="1" fill="#FFFFFF" />
<rect x="39" y="21" width="1" height="1" fill="#FFFFFF" />
<rect x="40" y="21" width="1" height="1" fill="#FFFFFF" />
<rect x="41" y="21" width="1" height="1" fill="#FFFFFF" />
<rect x="42" y="21" width="1" height="1" fill="#FFFFFF" />
<rect x="43" y="21" width="1" height="1" fill="#FFFFFF" />
<rect x="44" y="21" width="1" height="1" fill="#FFFFFF" />
<rect x="45" y="21" width="1" height="1" fill="#FFFFFF" />
<rect x="59" y="21" width="1" height="1" fill="#FFFFFF" />
<rect x="60" y="21" width="1" height="1" fill="#FFFFFF" />
<rect x="61" y="21" width="1" height="1" fill="#FFFFFF" />
<rect x="2" y="22" width="1" height="1" fill="#FFFFFF" />
<rect x="3" y="22" width="1" height="1" fill="#FFFFFF" />
<rect x="4" y="22" width="1" height="1" fill="#FFFFFF" />
<rect x="38" y="22" width="1" height="1" fill="#FFFFFF" />
<rect x="39" y="22" width="1" height="1" fill="#FFFFFF" />
<rect x="40" y="22" width="1" height="1" fill="#FFFFFF" />
<rect x="41" y="22" width="1" height="1" fill="#FFFFFF" />
<rect x="42" y="22" width="1" height="1" fill="#FFFFFF" />
<rect x="43" y="22" width="1" height="1" fill="#FFFFFF" />
<rect x="44" y="22" width="1" height="1" fill="#FFFFFF" />
<rect x="59" y="22" width="1" height="1" fill="#FFFFFF" />
<rect x="60" y="22" width="1" height="1" fill="#FFFFFF" />
<rect x="61" y="22" width="1" height="1" fill="#FFFFFF" />
<rect x="1" y="23" width="1" height="1" fill="#FFFFFF" />
<rect x="2" y="23" width="1" height="1" fill="#FFFFFF" />
<rect x="3" y="23" width="1" height="1" fill="#FFFFFF" />
<rect x="37" y="23" width="1" height="1" fill="#FFFFFF" />
<rect x="38" y="23" width="1" height="1" fill="#FFFFFF" />
<rect x="39" y="23" width="1" height="1" fill="#FFFFFF" />
<rect x="40" y="23" width="1" height="1" fill="#FFFFFF" />
<rect x="41" y="23" width="1" height="1" fill="#FFFFFF" />
<rect x="42" y="23" width="1" height="1" fill="#FFFFFF" />
<rect x="43" y="23" width="1" height="1" fill="#FFFFFF" />
<rect x="60" y="23" width="1" height="1" fill="#FFFFFF" />
<rect x="61" y="23" width="1" height="1" fill="#FFFFFF" />
<rect x="62" y="23" width="1" height="1" fill="#FFFFFF" />
<rect x="1" y="24" width="1" height="1" fill="#FFFFFF" />
<rect x="2" y="24" width="1" height="1" fill="#FFFFFF" />
<rect x="3" y="24" width="1" height="1" fill="#FFFFFF" />
<rect x="36" y="24" width="1" height="1" fill="#FFFFFF" />
<rect x="37" y="24" width="1" height="1" fill="#FFFFFF" />
<rect x="38" y="24" width="1" height="1" fill="#FFFFFF" />
<rect x="39" y="24" width="1" height="1" fill="#FFFFFF" />
<rect x="40" y="24" width="1" height="1" fill="#FFFFFF" />
<rect x="41" y="24" width="1" height="1" fill="#FFFFFF" />
<rect x="42" y="24" width="1" height="1" fill="#FFFFFF" />
<rect x="60" y="24" width="1" height="1" fill="#FFFFFF" />
<rect x="61" y="24" width="1" height="1" fill="#FFFFFF" />
<rect x="62" y="24" width="1" height="1" fill="#FFFFFF" />
<rect x="1" y="25" width="1" height="1" fill="#FFFFFF" />
<rect x="2" y="25" width="1" height="1" fill="#FFFFFF" />
<rect x="3" y="25" width="1" height="1" fill="#FFFFFF" />
<rect x="35" y="25" width="1" height="1" fill="#FFFFFF" />
<rect x="36" y="25" width="1" height="1" fill="#FFFFFF" />
<rect x="37" y="25" width="1" height="1" fill="#FFFFFF" />
<rect x="38" y="25" width="1" height="1" fill="#FFFFFF" />
<rect x="39" y="25" width="1" height="1" fill="#FFFFFF" />
<rect x="40" y="25" width="1" height="1" fill="#FFFFFF" />
<rect x="41" y="25" width="1" height="1" fill="#FFFFFF" />
<rect x="60" y="25" width="1" height="1" fill="#FFFFFF" />
<rect x="61" y="25" width="1" height="1" fill="#FFFFFF" />
<rect x="62" y="25" width="1" height="1" fill="#FFFFFF" />
<rect x="1" y="26" width="1" height="1" fill="#FFFFFF" />
<rect x="2" y="26" width="1" height="1" fill="#FFFFFF" />
<rect x="3" y="26" width="1" height="1" fill="#FFFFFF" />
<rect x="34" y="26" width="1" height="1" fill="#FFFFFF" />
<rect x="35" y="26" width="1" height="1" fill="#FFFFFF" />
<rect x="36" y="26" width="1" height="1" fill="#FFFFFF" />
<rect x="37" y="26" width="1" height="1" fill="#FFFFFF" />
<rect x="38" y="26" width="1" height="1" fill="#FFFFFF" />
<rect x="39" y="26" width="1" height="1" fill="#FFFFFF" />
<rect x="40" y="26" width="1" height="1" fill="#FFFFFF" />
<rect x="60" y="26" width="1" height="1" fill="#FFFFFF" />
<rect x="61" y="26" width="1" height="1" fill="#FFFFFF" />
<rect x="62" y="26" width="1" height="1" fill="#FFFFFF" />
<rect x="0" y="27" width="1" height="1" fill="#FFFFFF" />
<rect x="1" y="27" width="1" height="1" fill="#FFFFFF" />
<rect x="2" y="27" width="1" height="1" fill="#FFFFFF" />
<rect x="33" y="27" width="1" height="1" fill="#FFFFFF" />
<rect x="34" y="27" width="1" height="1" fill="#FFFFFF" />
<rect x="35" y="27" width="1" height="1" fill="#FFFFFF" />
<rect x="36" y="27" width="1" height="1" fill="#FFFFFF" />
<rect x="37" y="27" width="1" height="1" fill="#FFFFFF" />
<rect x="38" y="27" width="1" height="1" fill="#FFFFFF" />
<rect x="39" y="27" width="1" height="1" fill="#FFFFFF" />
<rect x="61" y="27" width="1" height="1" fill="#FFFFFF" />
<rect x="62" y="27" width="1" height="1" fill="#FFFFFF" />
<rect x="63" y="27" width="1" height="1" fill="#FFFFFF" />
<rect x="0" y="28" width="1" height="1" fill="#FFFFFF" />
<rect x="1" y="28" width="1" height="1" fill="#FFFFFF" />
<rect x="2" y="28" width="1" height="1" fill="#FFFFFF" />
<rect x="32" y="28" width="1" height="1" fill="#FFFFFF" />
<rect x="33" y="28" width="1" height="1" fill="#FFFFFF" />
<rect x="34" y="28" width="1" height="1" fill="#FFFFFF" />
<rect x="35" y="28" width="1" height="1" fill="#FFFFFF" />
<rect x="36" y="28" width="1" height="1" fill="#FFFFFF" />
<rect x="37" y="28" width="1" height="1" fill="#FFFFFF" />
<rect x="38" y="28" width="1" height="1" fill="#FFFFFF" />
<rect x="61" y="28" width="1" height="1" fill="#FFFFFF" />
<rect x="62" y="28" width="1" height="1" fill="#FFFFFF" />
<rect x="63" y="28" width="1" height="1" fill="#FFFFFF" />
<rect x="0" y="29" width="1" height="1" fill="#FFFFFF" />
<rect x="1" y="29" width="1" height="1" fill="#FFFFFF" />
<rect x="2" y="29" width="1" height="1" fill="#FFFFFF" />
<rect x="31" y="29" width="1" height="1" fill="#FFFFFF" />
<rect x="32" y="29" width="1" height="1" fill="#FFFFFF" />
<rect x="33" y="29" width="1" height="1" fill="#FFFFFF" />
<rect x="34" y="29" width="1" height="1" fill="#FFFFFF" />
<rect x="35" y="29" width="1" height="1" fill="#FFFFFF" />
<rect x="36" y="29" width="1" height="1" fill="#FFFFFF" />
<rect x="37" y="29" width="1" height="1" fill="#FFFFFF" />
<rect x="61" y="29" width="1" height="1" fill="#FFFFFF" />
<rect x="62" y="29" width="1" height="1" fill="#FFFFFF" />
<rect x="63" y="29" width="1" height="1" fill="#FFFFFF" />
<rect x="0" y="30" width="1" height="1" fill="#FFFFFF" />
<rect x="1" y="30" width="1" height="1" fill="#FFFFFF" />
<rect x="2" y="30" width="1" height="1" fill="#FFFFFF" />
<rect x="30" y="30" width="1" height="1" fill="#FFFFFF" />
<rect x="31" y="30" width="1" height="1" fill="#FFFFFF" />
<rect x="32" y="30" width="1" height="1" fill="#FFFFFF" />
<rect x="33" y="30" width="1" height="1" fill="#FFFFFF" />
<rect x="34" y="30" width="1" height="1" fill="#FFFFFF" />
<rect x="35" y="30" width="1" height="1" fill="#FFFFFF" />
<rect x="36" y="30" width="1" height="1" fill="#FFFFFF" />
<rect x="61" y="30" width="1" height="1" fill="#FFFFFF" />
<rect x="62" y="30" width="1" height="1" fill="#FFFFFF" />
<rect x="63" y="30" width="1" height="1" fill="#FFFFFF" />
<rect x="0" y="31" width="1" height="1" fill="#FFFFFF" />
<rect x="1" y="31" width="1" height="1" fill="#FFFFFF" />
<rect x="2" y="31" width="1" height="1" fill="#FFFFFF" />
<rect x="29" y="31" width="1" height="1" fill="#FFFFFF" />
<rect x="30" y="31" width="1" height="1" fill="#FFFFFF" />
<rect x="31" y="31" width="1" height="1" fill="#FFFFFF" />
<rect x="32" y="31" width="1" height="1" fill="#FFFFFF" />
<rect x="33" y="31" width="1" height="1" fill="#FFFFFF" />
<rect x="34" y="31" width="1" height="1" fill="#FFFFFF" />
<rect x="35" y="31" width="1" height="1" fill="#FFFFFF" />
<rect x="61" y="31" width="1" height="1" fill="#FFFFFF" />
<rect x="62" y="31" width="1" height="1" fill="#FFFFFF" />
<rect x="63" y="31" width="1" height="1" fill="#FFFFFF" />
<rect x="0" y="32" width="1" height="1" fill="#FFFFFF" />
<rect x="1" y="32" width="1" height="1" fill="#FFFFFF" />
<rect x="2" y="32" width="1" height="1" fill="#FFFFFF" />
<rect x="28" y="32" width="1" height="1" fill="#FFFFFF" />
<rect x="29" y="32" width="1" height="1" fill="#FFFFFF" />
<rect x="30" y="32" width="1" height="1" fill="#FFFFFF" />
<rect x="31" y="32" width="1" height="1" fill="#FFFFFF" />
<rect x="32" y="32" width="1" height="1" fill="#FFFFFF" />
<rect x="33" y="32" width="1" height="1" fill="#FFFFFF" />
<rect x="34" y="32" width="1" height="1" fill="#FFFFFF" />
<rect x="61" y="32" width="1" height="1" fill="#FFFFFF" />
<rect x="62" y="32" width="1" height="1" fill="#FFFFFF" />
<rect x="63" y="32" width="1" height="1" fill="#FFFFFF" />
<rect x="0" y="33" width="1" height="1" fill="#FFFFFF" />
<rect x="1" y="33" width="1" height="1" fill="#FFFFFF" />
<rect x="2" y="33" width="1" height="1" fill="#FFFFFF" />
<rect x="27" y="33" width="1" height="1" fill="#FFFFFF" />
<rect x="28" y="33" width="1" height="1" fill="#FFFFFF" />
<rect x="29" y="33" width="1" height="1" fill="#FFFFFF" />
<rect x="30" y="33" width="1" height="1" fill="#FFFFFF" />
<rect x="31" y="33" width="1" height="1" fill="#FFFFFF" />
<rect x="32" y="33" width="1" height="1" fill="#FFFFFF" />
<rect x="33" y="33" width="1" height="1" fill="#FFFFFF" />
<rect x="61" y="33" width="1" height="1" fill="#FFFFFF" />
<rect x="62" y="33" width="1" height="1" fill="#FFFFFF" />
<rect x="63" y="33" width="1" height="1" fill="#FFFFFF" />
<rect x="0" y="34" width="1" height="1" fill="#FFFFFF" />
<rect x="1" y="34" width="1" height="1" fill="#FFFFFF" />
<rect x="2" y="34" width="1" height="1" fill="#FFFFFF" />
<rect x="26" y="34" width="1" height="1" fill="#FFFFFF" />
<rect x="27" y="34" width="1" height="1" fill="#FFFFFF" />
<rect x="28" y="34" width="1" height="1" fill="#FFFFFF" />
<rect x="29" y="34" width="1" height="1" fill="#FFFFFF" />
<rect x="30" y="34" width="1" height="1" fill="#FFFFFF" />
<rect x="31" y="34" width="1" height="1" fill="#FFFFFF" />
<rect x="32" y="34" width="1" height="1" fill="#FFFFFF" />
<rect x="61" y="34" width="1" height="1" fill="#FFFFFF" />
<rect x="62" y="34" width="1" height="1" fill="#FFFFFF" />
<rect x="63" y="34" width="1" height="1" fill="#FFFFFF" />
<rect x="0" y="35" width="1" height="1" fill="#FFFFFF" />
<rect x="1" y="35" width="1" height="1" fill="#FFFFFF" />
<rect x="2" y="35" width="1" height="1" fill="#FFFFFF" />
<rect x="25" y="35" width="1" height="1" fill="#FFFFFF" />
<rect x="26" y="35" width="1" height="1" fill="#FFFFFF" />
<rect x="27" y="35" width="1" height="1" fill="#FFFFFF" />
<rect x="28" y="35" width="1" height="1" fill="#FFFFFF" />
<rect x="29" y="35" width="1" height="1" fill="#FFFFFF" />
<rect x="30" y="35" width="1" height="1" fill="#FFFFFF" />
<rect x="31" y="35" width="1" height="1" fill="#FFFFFF" />
<rect x="61" y="35" width="1" height="1" fill="#FFFFFF" />
<rect x="62" y="35" width="1" height="1" fill="#FFFFFF" />
<rect x="63" y="35" width="1" height="1" fill="#FFFFFF" />
<rect x="0" y="36" width="1" height="1" fill="#FFFFFF" />
<rect x="1" y="36" width="1" height="1" fill="#FFFFFF" />
<rect x="2" y="36" width="1" height="1" fill="#FFFFFF" />
<rect x="24" y="36" width="1" height="1" fill="#FFFFFF" />
<rect x="25" y="36" width="1" height="1" fill="#FFFFFF" />
<rect x="26" y="36" width="1" height="1" fill="#FFFFFF" />
<rect x="27" y="36" width="1" height="1" fill="#FFFFFF" />
<rect x="28" y="36" width="1" height="1" fill="#FFFFFF" />
<rect x="29" y="36" width="1" height="1" fill="#FFFFFF" />
<rect x="30" y="36" width="1" height="1" fill="#FFFFFF" />
<rect x="61" y="36" width="1" height="1" fill="#FFFFFF" />
<rect x="62" y="36" width="1" height="1" fill="#FFFFFF" />
<rect x="63" y="36" width="1" height="1" fill="#FFFFFF" />
<rect x="1" y="37" width="1" height="1" fill="#FFFFFF" />
<rect x="2" y="37" width="1" height="1" fill="#FFFFFF" />
<rect x="3" y="37" width="1" height="1" fill="#FFFFFF" />
<rect x="23" y="37" width="1" height="1" fill="#FFFFFF" />
<rect x="24" y="37" width="1" height="1" fill="#FFFFFF" />
<rect x="25" y="37" width="1" height="1" fill="#FFFFFF" />
<rect x="26" y="37" width="1" height="1" fill="#FFFFFF" />
<rect x="27" y="37" width="1" height="1" fill="#FFFFFF" />
<rect x="28" y="37" width="1" height="1" fill="#FFFFFF" />
<rect x="29" y="37" width="1" height="1" fill="#FFFFFF" />
<rect x="60" y="37" width="1" height="1" fill="#FFFFFF" />
<rect x="61" y="37" width="1" height="1" fill="#FFFFFF" />
<rect x="62" y="37" width="1" height="1" fill="#FFFFFF" />
<rect x="1" y="38" width="1" height="1" fill="#FFFFFF" />
<rect x="2" y="38" width="1" height="1" fill="#FFFFFF" />
<rect x="3" y="38" width="1" height="1" fill="#FFFFFF" />
<rect x="22" y="38" width="1" height="1" fill="#FFFFFF" />
<rect x="23" y="38" width="1" height="1" fill="#FFFFFF" />
<rect x="24" y="38" width="1" height="1" fill="#FFFFFF" />
<rect x="25" y="38" width="1" height="1" fill="#FFFFFF" />
<rect x="26" y="38" width="1" height="1" fill="#FFFFFF" />
<rect x="27" y="38" width="1" height="1" fill="#FFFFFF" />
<rect x="28" y="38" width="1" height="1" fill="#FFFFFF" />
<rect x="60" y="38" width="1" height="1" fill="#FFFFFF" />
<rect x="61" y="38" width="1" height="1" fill="#FFFFFF" />
<rect x="62" y="38" width="1" height="1" fill="#FFFFFF" />
<rect x="1" y="39" width="1" height="1" fill="#FFFFFF" />
<rect x="2" y="39" width="1" height="1" fill="#FFFFFF" />
<rect x="3" y="39" width="1" height="1" fill="#FFFFFF" />
<rect x="21" y="39" width="1" height="1" fill="#FFFFFF" />
<rect x="22" y="39" width="1" height="1" fill="#FFFFFF" />
<rect x="23" y="39" width="1" height="1" fill="#FFFFFF" />
<rect x="24" y="39" width="1" height="1" fill="#FFFFFF" />
<rect x="25" y="39" width="1" height="1" fill="#FFFFFF" />
<rect x="26" y="39" width="1" height="1" fill="#FFFFFF" />
<rect x="27" y="39" width="1" height="1" fill="#FFFFFF" />
<rect x="60" y="39" width="1" height="1" fill="#FFFFFF" />
<rect x="61" y="39" width="1" height="1" fill="#FFFFFF" />
<rect x="62" y="39" width="1" height="1" fill="#FFFFFF" />
<rect x="1" y="40" width="1" height="1" fill="#FFFFFF" />
<rect x="2" y="40" width="1" height="1" fill="#FFFFFF" />
<rect x="3" y="40" width="1" height="1" fill="#FFFFFF" />
<rect x="20" y="40" width="1" height="1" fill="#FFFFFF" />
<rect x="21" y="40" width="1" height="1" fill="#FFFFFF" />
<rect x="22" y="40" width="1" height="1" fill="#FFFFFF" />
<rect x="23" y="40" width="1" height="1" fill="#FFFFFF" />
<rect x="24" y="40" width="1" height="1" fill="#FFFFFF" />
<rect x="25" y="40" width="1" height="1" fill="#FFFFFF" />
<rect x="26" y="40" width="1" height="1" fill="#FFFFFF" />
<rect x="60" y="40" width="1" height="1" fill="#FFFFFF" />
<rect x="61" y="40" width="1" height="1" fill="#FFFFFF" />
<rect x="62" y="40" width="1" height="1" fill="#FFFFFF" />
<rect x="2" y="41" width="1" height="1" fill="#FFFFFF" />
<rect x="3" y="41" width="1" height="1" fill="#FFFFFF" />
<rect x="4" y="41" width="1" height="1" fill="#FFFFFF" />
<rect x="19" y="41" width="1" height="1" fill="#FFFFFF" />
<rect x="20" y="41" width="1" height="1" fill="#FFFFFF" />
<rect x="21" y="41" width="1" height="1" fill="#FFFFFF" />
<rect x="22" y="41" width="1" height="1" fill="#FFFFFF" />
<rect x="23" y="41" width="1" height="1" fill="#FFFFFF" />
<rect x="24" y="41" width="1" height="1" fill="#FFFFFF" />
<rect x="25" y="41" width="1" height="1" fill="#FFFFFF" />
<rect x="59" y="41" width="1" height="1" fill="#FFFFFF" />
<rect x="60" y="41" width="1" height="1" fill="#FFFFFF" />
<rect x="61" y="41" width="1" height="1" fill="#FFFFFF" />
<rect x="2" y="42" width="1" height="1" fill="#FFFFFF" />
<rect x="3" y="42" width="1" height="1" fill="#FFFFFF" />
<rect x="4" y="42" width="1" height="1" fill="#FFFFFF" />
<rect x="18" y="42" width="1" height="1" fill="#FFFFFF" />
<rect x="19" y="42" width="1" height="1" fill="#FFFFFF" />
<rect x="20" y="42" width="1" height="1" fill="#FFFFFF" />
<rect x="21" y="42" width="1" height="1" fill="#FFFFFF" />
<rect x="22" y="42" width="1" height="1" fill="#FFFFFF" />
<rect x="23" y="42" width="1" height="1" fill="#FFFFFF" />
<rect x="24" y="42" width="1" height="1" fill="#FFFFFF" />
<rect x="59" y="42" width="1" height="1" fill="#FFFFFF" />
<rect x="60" y="42" width="1" height="1" fill="#FFFFFF" />
<rect x="61" y="42" width="1" height="1" fill="#FFFFFF" />
<rect x="2" y="43" width="1" height="1" fill="#FFFFFF" />
<rect x="3" y="43" width="1" height="1" fill="#FFFFFF" />
<rect x="4" y="43" width="1" height="1" fill="#FFFFFF" />
<rect x="17" y="43" width="1" height="1" fill="#FFFFFF" />
<rect x="18" y="43" width="1" height="1" fill="#FFFFFF" />
<rect x="19" y="43" width="1" height="1" fill="#FFFFFF" />
<rect x="20" y="43" width="1" height="1" fill="#FFFFFF" />
<rect x="21" y="43" width="1" height="1" fill="#FFFFFF" />
<rect x="22" y="43" width="1" height="1" fill="#FFFFFF" />
<rect x="23" y="43" width="1" height="1" fill="#FFFFFF" />
<rect x="59" y="43" width="1" height="1" fill="#FFFFFF" />
<rect x="60" y="43" width="1" height="1" fill="#FFFFFF" />
<rect x="61" y="43" width="1" height="1" fill="#FFFFFF" />
<rect x="3" y="44" width="1" height="1" fill="#FFFFFF" />
<rect x="4" y="44" width="1" height="1" fill="#FFFFFF" />
<rect x="5" y="44" width="1" height="1" fill="#FFFFFF" />
<rect x="16" y="44" width="1" height="1" fill="#FFFFFF" />
<rect x="17" y="44" width="1" height="1" fill="#FFFFFF" />
<rect x="18" y="44" width="1" height="1" fill="#FFFFFF" />
<rect x="19" y="44" width="1" height="1" fill="#FFFFFF" />
<rect x="20" y="44" width="1" height="1" fill="#FFFFFF" />
<rect x="21" y="44" width="1" height="1" fill="#FFFFFF" />
<rect x="22" y="44" width="1" height="1" fill="#FFFFFF" />
<rect x="58" y="44" width="1" height="1" fill="#FFFFFF" />
<rect x="59" y="44" width="1" height="1" fill="#FFFFFF" />
<rect x="60" y="44" width="1" height="1" fill="#FFFFFF" />
<rect x="3" y="45" width="1" height="1" fill="#FFFFFF" />
<rect x="4" y="45" width="1" height="1" fill="#FFFFFF" />
<rect x="5" y="45" width="1" height="1" fill="#FFFFFF" />
<rect x="15" y="45" width="1" height="1" fill="#FFFFFF" />
<rect x="16" y="45" width="1" height="1" fill="#FFFFFF" />
<rect x="17" y="45" width="1" height="1" fill="#FFFFFF" />
<rect x="18" y="45" width="1" height="1" fill="#FFFFFF" />
<rect x="19" y="45" width="1" height="1" fill="#FFFFFF" />
<rect x="20" y="45" width="1" height="1" fill="#FFFFFF" />
<rect x="21" y="45" width="1" height="1" fill="#FFFFFF" />
<rect x="58" y="45" width="1" height="1" fill="#FFFFFF" />
<rect x="59" y="45" width="1" height="1" fill="#FFFFFF" />
<rect x="60" y="45" width="1" height="1" fill="#FFFFFF" />
<rect x="4" y="46" width="1" height="1" fill="#FFFFFF" />
<rect x="5" y="46" width="1" height="1" fill="#FFFFFF" />
<rect x="6" y="46" width="1" height="1" fill="#FFFFFF" />
<rect x="14" y="46" width="1" height="1" fill="#FFFFFF" />
<rect x="15" y="46" width="1" height="1" fill="#FFFFFF" />
<rect x="16" y="46" width="1" height="1" fill="#FFFFFF" />
<rect x="17" y="46" width="1" height="1" fill="#FFFFFF" />
<rect x="18" y="46" width="1" height="1" fill="#FFFFFF" />
<rect x="19" y="46" width="1" height="1" fill="#FFFFFF" />
<rect x="20" y="46" width="1" height="1" fill="#FFFFFF" />
<rect x="57" y="46" width="1" height="1" fill="#FFFFFF" />
<rect x="58" y="46" width="1" height="1" fill="#FFFFFF" />
<rect x="59" y="46" width="1" height="1" fill="#FFFFFF" />
<rect x="4" y="47" width="1" height="1" fill="#FFFFFF" />
<rect x="5" y="47" width="1" height="1" fill="#FFFFFF" />
<rect x="6" y="47" width="1" height="1" fill="#FFFFFF" />
<rect x="13" y="47" width="1" height="1" fill="#FFFFFF" />
<rect x="14" y="47" width="1" height="1" fill="#FFFFFF" />
<rect x="15" y="47" width="1" height="1" fill="#FFFFFF" />
<rect x="16" y="47" width="1" height="1" fill="#FFFFFF" />
<rect x="17" y="47" width="1" height="1" fill="#FFFFFF" />
<rect x="18" y="47" width="1" height="1" fill="#FFFFFF" />
<rect x="19" y="47" width="1" height="1" fill="#FFFFFF" />
<rect x="57" y="47" width="1" height="1" fill="#FFFFFF" />
<rect x="58" y="47" width="1" height="1" fill="#FFFFFF" />
<rect x="59" y="47" width="1" height="1" fill="#FFFFFF" />
<rect x="5" y="48" width="1" height="1" fill="#FFFFFF" />
<rect x="6" y="48" width="1" height="1" fill="#FFFFFF" />
<rect x="7" y="48" width="1" height="1" fill="#FFFFFF" />
<rect x="12" y="48" width="1" height="1" fill="#FFFFFF" />
<rect x="13" y="48" width="1" height="1" fill="#FFFFFF" />
<rect x="14" y="48" width="1" height="1" fill="#FFFFFF" />
<rect x="15" y="48" width="1" height="1" fill="#FFFFFF" />
<rect x="16" y="48" width="1" height="1" fill="#FFFFFF" />
<rect x="17" y="48" width="1" height="1" fill="#FFFFFF" />
<rect x="18" y="48" width="1" height="1" fill="#FFFFFF" />
<rect x="56" y="48" width="1" height="1" fill="#FFFFFF" />
<rect x="57" y="48" width="1" height="1" fill="#FFFFFF" />
<rect x="58" y="48" width="1" height="1" fill="#FFFFFF" />
<rect x="6" y="49" width="1" height="1" fill="#FFFFFF" />
<rect x="7" y="49" width="1" height="1" fill="#FFFFFF" />
<rect x="8" y="49" width="1" height="1" fill="#FFFFFF" />
<rect x="11" y="49" width="1" height="1" fill="#FFFFFF" />
<rect x="12" y="49" width="1" height="1" fill="#FFFFFF" />
<rect x="13" y="49" width="1" height="1" fill="#FFFFFF" />
<rect x="14" y="49" width="1" height="1" fill="#FFFFFF" />
<rect x="15" y="49" width="1" height="1" fill="#FFFFFF" />
<rect x="16" y="49" width="1" height="1" fill="#FFFFFF" />
<rect x="17" y="49" width="1" height="1" fill="#FFFFFF" />
<rect x="55" y="49" width="1" height="1" fill="#FFFFFF" />
<rect x="56" y="49" width="1" height="1" fill="#FFFFFF" />
<rect x="57" y="49" width="1" height="1" fill="#FFFFFF" />
<rect x="7" y="50" width="1" height="1" fill="#FFFFFF" />
<rect x="8" y="50" width="1" height="1" fill="#FFFFFF" />
<rect x="9" y="50" width="1" height="1" fill="#FFFFFF" />
<rect x="10" y="50" width="1" height="1" fill="#FFFFFF" />
<rect x="11" y="50" width="1" height="1" fill="#FFFFFF" />
<rect x="12" y="50" width="1" height="1" fill="#FFFFFF" />
<rect x="13" y="50" width="1" height="1" fill="#FFFFFF" />
<rect x="14" y="50" width="1" height="1" fill="#FFFFFF" />
<rect x="15" y="50" width="1" height="1" fill="#FFFFFF" />
<rect x="16" y="50" width="1" height="1" fill="#FFFFFF" />
<rect x="54" y="50" width="1" height="1" fill="#FFFFFF" />
<rect x="55" y="50" width="1" height="1" fill="#FFFFFF" />
<rect x="56" y="50" width="1" height="1" fill="#FFFFFF" />
<rect x="7" y="51" width="1" height="1" fill="#FFFFFF" />
<rect x="8" y="51" width="1" height="1" fill="#FFFFFF" />
<rect x="9" y="51" width="1" height="1" fill="#FFFFFF" />
<rect x="10" y="51" width="1" height="1" fill="#FFFFFF" />
<rect x="11" y="51" width="1" height="1" fill="#FFFFFF" />
<rect x="12" y="51" width="1" height="1" fill="#FFFFFF" />
<rect x="13" y="51" width="1" height="1" fill="#FFFFFF" />
<rect x="14" y="51" width="1" height="1" fill="#FFFFFF" />
<rect x="15" y="51" width="1" height="1" fill="#FFFFFF" />
<rect x="54" y="51" width="1" height="1" fill="#FFFFFF" />
<rect x="55" y="51" width="1" height="1" fill="#FFFFFF" />
<rect x="56" y="51" width="1" height="1" fill="#FFFFFF" />
<rect x="8" y="52" width="1" height="1" fill="#FFFFFF" />
<rect x="9" y="52" width="1" height="1" fill="#FFFFFF" />
<rect x="10" y="52" width="1" height="1" fill="#FFFFFF" />
<rect x="11" y="52" width="1" height="1" fill="#FFFFFF" />
<rect x="12" y="52" width="1" height="1" fill="#FFFFFF" />
<rect x="13" y="52" width="1" height="1" fill="#FFFFFF" />
<rect x="14" y="52" width="1" height="1" fill="#FFFFFF" />
<rect x="53" y="52" width="1" height="1" fill="#FFFFFF" />
<rect x="54" y="52" width="1" height="1" fill="#FFFFFF" />
<rect x="55" y="52" width="1" height="1" fill="#FFFFFF" />
<rect x="9" y="53" width="1" height="1" fill="#FFFFFF" />
<rect x="10" y="53" width="1" height="1" fill="#FFFFFF" />
<rect x="11" y="53" width="1" height="1" fill="#FFFFFF" />
<rect x="12" y="53" width="1" height="1" fill="#FFFFFF" />
<rect x="13" y="53" width="1" height="1" fill="#FFFFFF" />
<rect x="52" y="53" width="1" height="1" fill="#FFFFFF" />
<rect x="53" y="53" width="1" height="1" fill="#FFFFFF" />
<rect x="54" y="53" width="1" height="1" fill="#FFFFFF" />
<rect x="10" y="54" width="1" height="1" fill="#FFFFFF" />
<rect x="11" y="54" width="1" height="1" fill="#FFFFFF" />
<rect x="12" y="54" width="1" height="1" fill="#FFFFFF" />
<rect x="13" y="54" width="1" height="1" fill="#FFFFFF" />
<rect x="50" y="54" width="1" height="1" fill="#FFFFFF" />
<rect x="51" y="54" width="1" height="1" fill="#FFFFFF" />
<rect x="52" y="54" width="1" height="1" fill="#FFFFFF" />
<rect x="53" y="54" width="1" height="1" fill="#FFFFFF" />
<rect x="11" y="55" width="1" height="1" fill="#FFFFFF" />
<rect x="12" y="55" width="1" height="1" fill="#FFFFFF" />
<rect x="13" y="55" width="1" height="1" fill="#FFFFFF" />
<rect x="14" y="55" width="1" height="1" fill="#FFFFFF" />
<rect x="49" y="55" width="1" height="1" fill="#FFFFFF" />
<rect x="50" y="55" width="1" height="1" fill="#FFFFFF" />
<rect x="51" y="55" width="1" height="1" fill="#FFFFFF" />
<rect x="52" y="55" width="1" height="1" fill="#FFFFFF" />
<rect x="12" y="56" width="1" height="1" fill="#FFFFFF" />
<rect x="13" y="56" width="1" height="1" fill="#FFFFFF" />
<rect x="14" y="56" width="1" height="1" fill="#FFFFFF" />
<rect x="15" y="56" width="1" height="1" fill="#FFFFFF" />
<rect x="48" y="56" width="1" height="1" fill="#FFFFFF" />
<rect x="49" y="56" width="1" height="1" fill="#FFFFFF" />
<rect x="50" y="56" width="1" height="1" fill="#FFFFFF" />
<rect x="51" y="56" width="1" height="1" fill="#FFFFFF" />
<rect x="14" y="57" width="1" height="1" fill="#FFFFFF" />
<rect x="15" y="57" width="1" height="1" fill="#FFFFFF" />
<rect x="16" y="57" width="1" height="1" fill="#FFFFFF" />
<rect x="17" y="57" width="1" height="1" fill="#FFFFFF" />
<rect x="46" y="57" width="1" height="1" fill="#FFFFFF" />
<rect x="47" y="57" width="1" height="1" fill="#FFFFFF" />
<rect x="48" y="57" width="1" height="1" fill="#FFFFFF" />
<rect x="49" y="57" width="1" height="1" fill="#FFFFFF" />
<rect x="15" y="58" width="1" height="1" fill="#FFFFFF" />
<rect x="16" y="58" width="1" height="1" fill="#FFFFFF" />
<rect x="17" y="58" width="1" height="1" fill="#FFFFFF" />
<rect x="18" y="58" width="1" height="1" fill="#FFFFFF" />
<rect x="19" y="58" width="1" height="1" fill="#FFFFFF" />
<rect x="44" y="58" width="1" height="1" fill="#FFFFFF" />
<rect x="45" y="58" width="1" height="1" fill="#FFFFFF" />
<rect x="46" y="58" width="1" height="1" fill="#FFFFFF" />
<rect x="47" y="58" width="1" height="1" fill="#FFFFFF" />
<rect x="48" y="58" width="1" height="1" fill="#FFFFFF" />
<rect x="16" y="59" width="1" height="1" fill="#FFFFFF" />
<rect x="17" y="59" width="1" height="1" fill="#FFFFFF" />
<rect x="18" y="59" width="1" height="1" fill="#FFFFFF" />
<rect x="19" y="59" width="1" height="1" fill="#FFFFFF" />
<rect x="20" y="59" width="1" height="1" fill="#FFFFFF" />
<rect x="21" y="59" width="1" height="1" fill="#FFFFFF" />
<rect x="22" y="59" width="1" height="1" fill="#FFFFFF" />
<rect x="41" y="59" width="1" height="1" fill="#FFFFFF" />
<rect x="42" y="59" width="1" height="1" fill="#FFFFFF" />
<rect x="43" y="59" width="1" height="1" fill="#FFFFFF" />
<rect x="44" y="59" width="1" height="1" fill="#FFFFFF" />
<rect x="45" y="59" width="1" height="1" fill="#FFFFFF" />
<rect x="46" y="59" width="1" height="1" fill="#FFFFFF" />
<rect x="47" y="59" width="1" height="1" fill="#FFFFFF" />
<rect x="18" y="60" width="1" height="1" fill="#FFFFFF" />
<rect x="19" y="60" width="1" height="1" fill="#FFFFFF" />
<rect x="20" y="60" width="1" height="1" fill="#FFFFFF" />
<rect x="21" y="60" width="1" height="1" fill="#FFFFFF" />
<rect x="22" y="60" width="1" height="1" fill="#FFFFFF" />
<rect x="23" y="60" width="1" height="1" fill="#FFFFFF" />
<rect x="24" y="60" width="1" height="1" fill="#FFFFFF" />
<rect x="25" y="60" width="1" height="1" fill="#FFFFFF" />
<rect x="26" y="60" width="1" height="1" fill="#FFFFFF" />
<rect x="37" y="60" width="1" height="1" fill="#FFFFFF" />
<rect x="38" y="60" width="1" height="1" fill="#FFFFFF" />
<rect x="39" y="60" width="1" height="1" fill="#FFFFFF" />
<rect x="40" y="60" width="1" height="1" fill="#FFFFFF" />
<rect x="41" y="60" width="1" height="1" fill="#FFFFFF" />
<rect x="42" y="60" width="1" height="1" fill="#FFFFFF" />
<rect x="43" y="60" width="1" height="1" fill="#FFFFFF" />
<rect x="44" y="60" width="1" height="1" fill="#FFFFFF" />
<rect x="45" y="60" width="1" height="1" fill="#FFFFFF" />
<rect x="20" y="61" width="1" height="1" fill="#FFFFFF" />
<rect x="21" y="61" width="1" height="1" fill="#FFFFFF" />
<rect x="22" y="61" width="1" height="1" fill="#FFFFFF" />
<rect x="23" y="61" width="1" height="1" fill="#FFFFFF" />
<rect x="24" y="61" width="1" height="1" fill="#FFFFFF" />
<rect x="25" y="61" width="1" height="1" fill="#FFFFFF" />
<rect x="26" y="61" width="1" height="1" fill="#FFFFFF" />
<rect x="27" y="61" width="1" height="1" fill="#FFFFFF" />
<rect x="28" y="61" width="1" height="1" fill="#FFFFFF" />
<rect x="29" y="61" width="1" height="1" fill="#FFFFFF" />
<rect x="30" y="61" width="1" height="1" fill="#FFFFFF" />
<rect x="31" y="61" width="1" height="1" fill="#FFFFFF" />
<rect x="32" y="61" width="1" height="1" fill="#FFFFFF" />
<rect x="33" y="61" width="1" height="1" fill="#FFFFFF" />
<rect x="34" y="61" width="1" height="1" fill="#FFFFFF" />
<rect x="35" y="61" width="1" height="1" fill="#FFFFFF" />
<rect x="36" y="61" width="1" height="1" fill="#FFFFFF" />
<rect x="37" y="61" width="1" height="1" fill="#FFFFFF" />
<rect x="38" y="61" width="1" height="1" fill="#FFFFFF" />
<rect x="39" y="61" width="1" height="1" fill="#FFFFFF" />
<rect x="40" y="61" width="1" height="1" fill="#FFFFFF" />
<rect x="41" y="61" width="1" height="1" fill="#FFFFFF" />
<rect x="42" y="61" width="1" height="1" fill="#FFFFFF" />
<rect x="43" y="61" width="1" height="1" fill="#FFFFFF" />
<rect x="23" y="62" width="1" height="1" fill="#FFFFFF" />
<rect x="24" y="62" width="1" height="1" fill="#FFFFFF" />
<rect x="25" y="62" width="1" height="1" fill="#FFFFFF" />
<rect x="26" y="62" width="1" height="1" fill="#FFFFFF" />
<rect x="27" y="62" width="1" height="1" fill="#FFFFFF" />
<rect x="28" y="62" width="1" height="1" fill="#FFFFFF" />
<rect x="29" y="62" width="1" height="1" fill="#FFFFFF" />
<rect x="30" y="62" width="1" height="1" fill="#FFFFFF" />
<rect x="31" y="62" width="1" height="1" fill="#FFFFFF" />
<rect x="32" y="62" width="1" height="1" fill="#FFFFFF" />
<rect x="33" y="62" width="1" height="1" fill="#FFFFFF" />
<rect x="34" y="62" width="1" height="1" fill="#FFFFFF" />
<rect x="35" y="62" width="1" height="1" fill="#FFFFFF" />
<rect x="36" y="62" width="1" height="1" fill="#FFFFFF" />
<rect x="37" y="62" width="1" height="1" fill="#FFFFFF" />
<rect x="38" y="62" width="1" height="1" fill="#FFFFFF" />
<rect x="39" y="62" width="1" height="1" fill="#FFFFFF" />
<rect x="40" y="62" width="1" height="1" fill="#FFFFFF" />
<rect x="27" y="63" width="1" height="1" fill="#FFFFFF" />
<rect x="28" y="63" width="1" height="1" fill="#FFFFFF" />
<rect x="29" y="63" width="1" height="1" fill="#FFFFFF" />
<rect x="30" y="63" width="1" height="1" fill="#FFFFFF" />
<rect x="31" y="63" width="1" height="1" fill="#FFFFFF" />
<rect x="32" y="63" width="1" height="1" fill="#FFFFFF" />
<rect x="33" y="63" width="1" height="1" fill="#FFFFFF" />
<rect x="34" y="63" width="1" height="1" fill="#FFFFFF" />
<rect x="35" y="63" width="1" height="1" fill="#FFFFFF" />
<rect x="36" y="63" width="1" height="1" fill="#FFFFFF" />
</svg>